M48
;GenerationSoftware,Autodesk,EAGLE,9.6.2*%
;CreationDate,2025-03-02T23:20:45Z*%
FMAT,2
ICI,OFF
INCH,TZ,00.0000
T4C0.0138
T3C0.0394
T2C0.0512
T1C0.0551
%
G90
M72
T1
X3898Y18921
X5898Y18921
X1898Y18921
X27795Y19000
X29795Y19000
X25795Y19000
X16024Y19000
X18024Y19000
X14024Y19000
T2
X23682Y7820
X23682Y8820
X23682Y9820
X25742Y8720
X25742Y9720
X25742Y10720
T3
X10224Y7750
X11024Y20700
X9024Y20700
X29862Y2000
X30862Y2000
X29862Y5000
X30862Y5000
X27442Y6060
X27442Y7060
X30212Y8950
X30212Y7950
X12824Y1300
X12824Y3300
X27712Y13600
X27712Y11600
X17524Y8500
X17524Y7500
X26362Y4250
X26362Y1250
X27362Y1250
X27362Y4250
X28362Y1250
X28362Y4250
X23524Y1250
X23524Y2250
X20524Y2250
X20524Y1250
X23524Y3250
X23524Y4250
X20524Y3250
X20524Y4250
X17524Y3000
X17524Y4000
X14524Y4000
X14524Y3000
X17524Y5000
X17524Y6000
X14524Y5000
X14524Y6000
X10224Y8750
X30812Y17600
X30812Y15600
X2674Y9500
X2674Y7500
X21874Y12050
X2524Y10500
X3524Y10500
X8524Y10500
X9524Y10500
X4524Y10500
X5524Y10500
X7524Y10500
X6524Y10500
X9524Y13500
X8524Y13500
X7524Y13500
X6524Y13500
X5524Y13500
X4524Y13500
X3524Y13500
X2524Y13500
X26980Y15688
X23980Y15688
X20324Y10600
X20324Y7600
X16974Y11950
X19974Y11950
X29862Y13650
X29862Y10650
X30912Y13650
X30912Y10650
X28782Y17930
X28782Y14930
X23312Y20800
X26312Y20800
X12624Y13700
X12624Y10700
X16024Y1150
X15024Y1150
X14024Y1150
X17024Y1150
X18024Y1150
X2524Y3450
X3524Y3450
X8524Y3450
X9524Y3450
X4524Y3450
X5524Y3450
X7524Y3450
X6524Y3450
X9524Y6450
X16524Y20800
X7524Y6450
X6524Y6450
X5524Y6450
X4524Y6450
X3524Y6450
X2524Y6450
X6624Y7550
X6624Y9550
X2024Y1500
X3024Y1500
X12524Y19000
X9524Y19000
X4674Y9550
X4674Y7550
X8674Y9550
X8674Y7550
X21874Y10050
X15674Y7100
X15674Y9100
X11274Y17150
X8274Y17150
X8274Y16150
X11274Y16150
X3974Y16150
X6974Y16150
X7024Y17150
X4024Y17150
X4298Y14478
X1298Y14478
X8824Y14850
X10824Y14850
X5261Y14850
X7261Y14850
X4774Y20800
X6774Y20800
X2965Y15600
X965Y15600
X12824Y14950
X12824Y16950
X21974Y19600
X19974Y19600
X12324Y20700
X14324Y20700
X16374Y17800
X19374Y17800
X14624Y14950
X14624Y16950
X15774Y10650
X15774Y13650
X14774Y10650
X14774Y13650
X16324Y16450
X19324Y16450
X19074Y15100
X17074Y15100
X10174Y1450
X8174Y1450
X4574Y1000
X6574Y1000
X11424Y1250
X11424Y2250
X7124Y2300
X4124Y2300
X13724Y10650
X13724Y13650
X13924Y7400
X13924Y9400
X11524Y7500
X11524Y9500
X12674Y6450
X12674Y5450
X12674Y4450
X10824Y3150
X10824Y6150
X11174Y10750
X11174Y12750
X23882Y17550
X23882Y19550
X21974Y17800
X21974Y15800
X20424Y18400
X20424Y15400
X16974Y14000
X19974Y14000
X19974Y12950
X16974Y12950
X21024Y13500
X22024Y13500
X19224Y7600
X19224Y10600
X28812Y13650
X28812Y10650
X19274Y4450
X19274Y1450
X18724Y6000
X20724Y6000
X22024Y6000
X23024Y6000
X15524Y20800
X20874Y20800
X17874Y20800
X8524Y6450
T4
X11474Y18300
X9524Y17850
X10224Y19650
X1724Y8800
M30