G04 EAGLE Gerber X2 export*
%TF.Part,Single*%
%TF.FileFunction,Copper,L1,Top,Mixed*%
%TF.FilePolarity,Positive*%
%TF.GenerationSoftware,Autodesk,EAGLE,9.6.2*%
%TF.CreationDate,2025-03-02T23:20:45Z*%
G75*
%MOIN*%
%FSLAX36Y36*%
%LPD*%
%INTop Copper Layer*%
%AMOC8*
5,1,8,0,0,1.08239X$1,22.5*%
G01*
%ADD10R,0.078740X0.078740*%
%ADD11C,0.078740*%
%ADD12C,0.076772*%
%ADD13P,0.085228X8X22.500000*%
%ADD14C,0.100000*%
%ADD15C,0.016000*%
%ADD16C,0.023780*%


D10*
X2302362Y600000D03*
D11*
X2202362Y600000D03*
X1567362Y910000D03*
X1567362Y710000D03*
X2187362Y1005000D03*
X2187362Y1205000D03*
X267362Y750000D03*
X267362Y950000D03*
X3081220Y1560000D03*
X3081220Y1760000D03*
X1022362Y875000D03*
X1022362Y775000D03*
X1102362Y2070000D03*
X902362Y2070000D03*
D10*
X2986220Y200000D03*
D11*
X3086220Y200000D03*
D10*
X2986220Y500000D03*
D11*
X3086220Y500000D03*
D10*
X2744220Y606000D03*
D11*
X2744220Y706000D03*
D10*
X3021220Y895000D03*
D11*
X3021220Y795000D03*
X1282362Y130000D03*
X1282362Y330000D03*
X2771220Y1360000D03*
X2771220Y1160000D03*
X1752362Y850000D03*
X1752362Y750000D03*
D10*
X2636220Y425000D03*
D11*
X2636220Y125000D03*
D10*
X2736220Y125000D03*
D11*
X2736220Y425000D03*
D10*
X2836220Y125000D03*
D11*
X2836220Y425000D03*
D10*
X2352362Y125000D03*
D11*
X2352362Y225000D03*
X2052362Y225000D03*
X2052362Y125000D03*
X2352362Y325000D03*
X2352362Y425000D03*
X2052362Y325000D03*
X2052362Y425000D03*
D10*
X1752362Y300000D03*
D11*
X1752362Y400000D03*
X1452362Y400000D03*
X1452362Y300000D03*
X1752362Y500000D03*
X1752362Y600000D03*
X1452362Y500000D03*
X1452362Y600000D03*
D12*
X2535835Y1072000D02*
X2612606Y1072000D01*
X2612606Y972000D02*
X2535835Y972000D01*
X2535835Y872000D02*
X2612606Y872000D01*
X2406606Y982000D02*
X2329835Y982000D01*
X2329835Y882000D02*
X2406606Y882000D01*
X2406606Y782000D02*
X2329835Y782000D01*
D10*
X252362Y1050000D03*
D11*
X352362Y1050000D03*
X852362Y1050000D03*
X952362Y1050000D03*
X452362Y1050000D03*
X552362Y1050000D03*
X752362Y1050000D03*
X652362Y1050000D03*
X952362Y1350000D03*
X852362Y1350000D03*
X752362Y1350000D03*
X652362Y1350000D03*
X552362Y1350000D03*
X452362Y1350000D03*
X352362Y1350000D03*
X252362Y1350000D03*
X2698000Y1568780D03*
X2398000Y1568780D03*
X2032362Y1060000D03*
X2032362Y760000D03*
X1697362Y1195000D03*
X1997362Y1195000D03*
X2986220Y1365000D03*
X2986220Y1065000D03*
X3091220Y1365000D03*
X3091220Y1065000D03*
X2878220Y1793000D03*
X2878220Y1493000D03*
X2331220Y2080000D03*
X2631220Y2080000D03*
X1262362Y1370000D03*
X1262362Y1070000D03*
D10*
X1602362Y115000D03*
D11*
X1502362Y115000D03*
D13*
X1402362Y115000D03*
D11*
X1702362Y115000D03*
D13*
X1802362Y115000D03*
D10*
X252362Y345000D03*
D11*
X352362Y345000D03*
X852362Y345000D03*
X952362Y345000D03*
X452362Y345000D03*
X552362Y345000D03*
X752362Y345000D03*
X652362Y345000D03*
X952362Y645000D03*
X852362Y645000D03*
X752362Y645000D03*
X652362Y645000D03*
X552362Y645000D03*
X452362Y645000D03*
X352362Y645000D03*
X252362Y645000D03*
X662362Y755000D03*
X662362Y955000D03*
D10*
X202362Y150000D03*
D11*
X302362Y150000D03*
X1252362Y1900000D03*
X952362Y1900000D03*
X467362Y955000D03*
X467362Y755000D03*
X867362Y955000D03*
X867362Y755000D03*
D14*
X1402362Y1900000D03*
X1802362Y1900000D03*
X1602362Y1900000D03*
D11*
X1127362Y1715000D03*
X827362Y1715000D03*
X827362Y1615000D03*
X1127362Y1615000D03*
X397362Y1615000D03*
X697362Y1615000D03*
X702362Y1715000D03*
X402362Y1715000D03*
X429764Y1447835D03*
X129764Y1447835D03*
X882362Y1485000D03*
X1082362Y1485000D03*
X526102Y1485000D03*
X726102Y1485000D03*
X477362Y2080000D03*
X677362Y2080000D03*
X296535Y1560039D03*
X96535Y1560039D03*
X1282362Y1495000D03*
X1282362Y1695000D03*
X2197362Y1960000D03*
X1997362Y1960000D03*
X1232362Y2070000D03*
X1432362Y2070000D03*
X1637362Y1780000D03*
X1937362Y1780000D03*
X1462362Y1495000D03*
X1462362Y1695000D03*
X1577362Y1065000D03*
X1577362Y1365000D03*
X1477362Y1065000D03*
X1477362Y1365000D03*
X1632362Y1645000D03*
X1932362Y1645000D03*
X1907362Y1510000D03*
X1707362Y1510000D03*
X1017362Y145000D03*
X817362Y145000D03*
X457362Y100000D03*
X657362Y100000D03*
X1142362Y125000D03*
X1142362Y225000D03*
X712362Y230000D03*
X412362Y230000D03*
X1372362Y1065000D03*
X1372362Y1365000D03*
X1392362Y740000D03*
X1392362Y940000D03*
X1152362Y750000D03*
X1152362Y950000D03*
X1267362Y645000D03*
X1267362Y545000D03*
X1267362Y445000D03*
X1082362Y315000D03*
X1082362Y615000D03*
X1117362Y1075000D03*
X1117362Y1275000D03*
X2388220Y1755000D03*
X2388220Y1955000D03*
X2197362Y1780000D03*
X2197362Y1580000D03*
X2042362Y1840000D03*
X2042362Y1540000D03*
X1697362Y1400000D03*
X1997362Y1400000D03*
X1997362Y1295000D03*
X1697362Y1295000D03*
X2102362Y1350000D03*
X2202362Y1350000D03*
X1922362Y760000D03*
X1922362Y1060000D03*
X2881220Y1365000D03*
X2881220Y1065000D03*
X1927362Y445000D03*
X1927362Y145000D03*
X1872362Y600000D03*
X2072362Y600000D03*
D14*
X2579528Y1900000D03*
X2979528Y1900000D03*
X2779528Y1900000D03*
X189764Y1892126D03*
X589764Y1892126D03*
X389764Y1892126D03*
D11*
X1787362Y2080000D03*
X2087362Y2080000D03*
D10*
X1552362Y2080000D03*
D11*
X1652362Y2080000D03*
D15*
X2636220Y425000D02*
X2736220Y425000D01*
X2461220Y600000D02*
X2302362Y600000D01*
X2461220Y600000D02*
X2636220Y425000D01*
X2352362Y225000D02*
X2202362Y375000D01*
X2202362Y600000D01*
X2841220Y1220000D02*
X2811220Y1250000D01*
X2232362Y1250000D01*
X2187362Y1205000D01*
X2744220Y606000D02*
X2886220Y748000D01*
X2793220Y1072000D02*
X2771000Y1072000D01*
X2574220Y1072000D01*
X2793220Y1072000D02*
X2841220Y1120000D01*
X2841220Y1220000D01*
X2771000Y1072000D02*
X2886220Y956780D01*
X2886220Y748000D01*
X1452362Y600000D02*
X1352362Y500000D01*
X1352362Y400000D02*
X1282362Y330000D01*
X1352362Y400000D02*
X1352362Y500000D01*
X1452362Y500000D02*
X1652362Y700000D01*
X1652362Y750000D01*
X1752362Y850000D01*
X1822362Y850000D02*
X2032362Y1060000D01*
X1822362Y850000D02*
X1752362Y850000D01*
X2217362Y1475000D02*
X2047362Y1645000D01*
X1932362Y1645000D01*
X2698000Y1568780D02*
X2704441Y1568780D01*
X2771220Y1502000D02*
X2771220Y1360000D01*
X2771220Y1502000D02*
X2704441Y1568780D01*
X2629000Y1475000D02*
X2217362Y1475000D01*
X2698000Y1544000D02*
X2698000Y1568780D01*
X2698000Y1544000D02*
X2629000Y1475000D01*
X1267362Y445000D02*
X1152362Y445000D01*
X752362Y445000D01*
X552362Y645000D01*
X1402362Y300000D02*
X1452362Y300000D01*
X1402362Y300000D02*
X1352362Y250000D01*
X1202362Y250000D01*
X1152362Y300000D01*
X1152362Y445000D01*
X3091220Y605000D02*
X3091220Y1065000D01*
X3091220Y605000D02*
X2986220Y500000D01*
X1602362Y300000D02*
X1452362Y300000D01*
X1672362Y230000D02*
X1837362Y230000D01*
X1672362Y230000D02*
X1602362Y300000D01*
X2871220Y1285000D02*
X3091220Y1065000D01*
X2871220Y1285000D02*
X2182362Y1285000D01*
X2127362Y1230000D01*
X2127362Y1140000D01*
X2202362Y1065000D01*
X2257362Y1065000D01*
X1992362Y480000D02*
X1992362Y385000D01*
X1992362Y480000D02*
X2027362Y515000D01*
X2087362Y515000D02*
X2137362Y565000D01*
X2137362Y650000D01*
X2257362Y770000D02*
X2257362Y1033000D01*
X2257362Y1065000D01*
X1992362Y385000D02*
X1837362Y230000D01*
X2027362Y515000D02*
X2087362Y515000D01*
X2137362Y650000D02*
X2257362Y770000D01*
X2308362Y982000D02*
X2368220Y982000D01*
X2308362Y982000D02*
X2257362Y1033000D01*
X1505732Y453370D02*
X1452362Y400000D01*
X1505732Y453370D02*
X1505732Y522257D01*
X1733475Y750000D02*
X1752362Y750000D01*
X1733475Y750000D02*
X1505732Y522257D01*
X1567362Y910000D02*
X1697362Y1040000D01*
X1697362Y1195000D01*
X817362Y580000D02*
X752362Y645000D01*
X817362Y580000D02*
X992362Y580000D01*
X1022362Y610000D01*
X1022362Y650000D01*
X1052362Y680000D01*
X1212362Y680000D02*
X1242362Y710000D01*
X1307362Y710000D01*
X1342362Y675000D01*
X1532362Y675000D01*
X1567362Y710000D01*
X1212362Y680000D02*
X1052362Y680000D01*
X652362Y650000D02*
X652362Y645000D01*
X852362Y850000D02*
X902362Y850000D01*
X1032362Y980000D01*
X1032362Y1090000D01*
X1077362Y1135000D01*
X1197362Y1135000D02*
X1262362Y1070000D01*
X852362Y850000D02*
X652362Y650000D01*
X1077362Y1135000D02*
X1197362Y1135000D01*
X1262362Y1070000D02*
X1262362Y935000D01*
X1402362Y795000D01*
X1592362Y795000D01*
X1807362Y1010000D01*
X1807362Y1615000D02*
X1902362Y1710000D01*
X2292362Y1710000D01*
X2357362Y1645000D02*
X2726220Y1645000D01*
X2878220Y1493000D01*
X1807362Y1615000D02*
X1807362Y1010000D01*
X2357362Y1645000D02*
X2292362Y1710000D01*
X452362Y645000D02*
X352362Y645000D01*
X657362Y750000D02*
X662362Y755000D01*
X657362Y750000D02*
X552362Y750000D01*
X452362Y650000D01*
X452362Y645000D01*
D16*
X172362Y880000D03*
D15*
X34252Y1018110D01*
X34252Y2117874D01*
X76378Y2160000D01*
X1117362Y2160000D01*
X2266220Y2015000D02*
X2331220Y2080000D01*
X1232362Y2070000D02*
X1207362Y2070000D01*
X1117362Y2160000D01*
X1232362Y2070000D02*
X1305362Y1997000D01*
X1919362Y1997000D02*
X1937362Y2015000D01*
X2266220Y2015000D01*
X1919362Y1997000D02*
X1305362Y1997000D01*
X252362Y735000D02*
X252362Y645000D01*
X252362Y735000D02*
X267362Y750000D01*
X352362Y900000D02*
X352362Y1050000D01*
X352362Y900000D02*
X302362Y850000D01*
X237362Y850000D02*
X177362Y790000D01*
X177362Y175000D01*
X202362Y150000D01*
X237362Y850000D02*
X302362Y850000D01*
X752362Y1050000D02*
X805732Y1103370D01*
X955732Y1103370D02*
X1022362Y1170000D01*
X1022362Y1349523D01*
X1182362Y1735477D02*
X1017839Y1900000D01*
X952362Y1900000D01*
X955732Y1103370D02*
X805732Y1103370D01*
X1022362Y1349523D02*
X1182362Y1509523D01*
X1182362Y1735477D01*
X467362Y955000D02*
X522362Y900000D01*
X702362Y900000D01*
X852362Y1050000D01*
X477362Y2080000D02*
X185512Y2080000D01*
X105512Y2000000D01*
X105512Y1700000D01*
X190512Y1615000D01*
X397362Y1615000D01*
X827362Y1615000D02*
X1027362Y1615000D01*
X1127362Y1715000D01*
X477362Y1695000D02*
X397362Y1615000D01*
X477362Y1890000D02*
X577362Y1990000D01*
X832362Y1990000D01*
X477362Y1890000D02*
X477362Y1695000D01*
X832362Y1990000D02*
X887362Y1935000D01*
X1012362Y1830000D02*
X1127362Y1715000D01*
X902362Y1830000D02*
X887362Y1845000D01*
X887362Y1935000D01*
X902362Y1830000D02*
X1012362Y1830000D01*
X570472Y1414523D02*
X516885Y1414523D01*
X452362Y1350000D01*
X697362Y1541413D02*
X697362Y1615000D01*
X697362Y1541413D02*
X570472Y1414523D01*
D16*
X1147362Y1830000D03*
D15*
X1282362Y1695000D01*
X129764Y1447835D02*
X96535Y1481063D01*
X96535Y1560039D01*
X154528Y1447835D02*
X252362Y1350000D01*
X154528Y1447835D02*
X129764Y1447835D01*
X618189Y1715000D02*
X702362Y1715000D01*
X618189Y1715000D02*
X429764Y1526575D01*
X429764Y1447835D01*
D16*
X952362Y1785000D03*
X1022362Y1965000D03*
D15*
X757362Y1770000D02*
X702362Y1715000D01*
X937362Y1770000D02*
X952362Y1785000D01*
X937362Y1770000D02*
X757362Y1770000D01*
X1022362Y1965000D02*
X1032362Y1975000D01*
X1982362Y1975000D02*
X1997362Y1960000D01*
X1982362Y1975000D02*
X1032362Y1975000D01*
X1477362Y1365000D02*
X1577362Y1265000D01*
X1577362Y1065000D01*
X1622362Y1510000D02*
X1707362Y1510000D01*
X1622362Y1510000D02*
X1477362Y1365000D01*
X452362Y345000D02*
X352362Y345000D01*
X697362Y145000D02*
X817362Y145000D01*
X547362Y250000D02*
X452362Y345000D01*
X592362Y250000D02*
X697362Y145000D01*
X592362Y250000D02*
X547362Y250000D01*
X1477362Y1260000D02*
X1372362Y1365000D01*
X1477362Y1260000D02*
X1477362Y1065000D01*
X1017362Y250000D02*
X1017362Y145000D01*
X1017362Y250000D02*
X1082362Y315000D01*
X852362Y345000D02*
X752362Y345000D01*
X457362Y100000D02*
X252362Y305000D01*
X252362Y345000D01*
X652362Y290000D02*
X712362Y230000D01*
X652362Y290000D02*
X652362Y345000D01*
X1922362Y1060000D02*
X1922362Y1100000D01*
X1922362Y1415000D01*
X1972362Y1465000D01*
X2087362Y1465000D01*
X2202362Y1350000D01*
X1697362Y1400000D02*
X1697362Y1295000D01*
X1817362Y465000D02*
X1752362Y400000D01*
X2003475Y1000000D02*
X2052362Y1000000D01*
X2087362Y1035000D01*
X2087362Y1095000D02*
X2062362Y1120000D01*
X1942362Y1120000D01*
X1922362Y1100000D01*
X1817362Y813887D02*
X1817362Y465000D01*
X1817362Y813887D02*
X2003475Y1000000D01*
X2087362Y1035000D02*
X2087362Y1095000D01*
X1962362Y690000D02*
X1872362Y600000D01*
X1962362Y690000D02*
X2067362Y690000D01*
X2102362Y1120000D02*
X2102362Y1350000D01*
X2102362Y1120000D02*
X2132362Y1090000D01*
X2132362Y755000D01*
X2067362Y690000D01*
X1777362Y1705000D02*
X1967362Y1895000D01*
X2252362Y1895000D01*
X2322362Y1825000D01*
X2322362Y1730000D01*
X2352362Y1700000D01*
X2891220Y1700000D02*
X2979528Y1788307D01*
X2979528Y1900000D01*
X2891220Y1700000D02*
X2352362Y1700000D01*
X1262362Y1130000D02*
X1117362Y1275000D01*
X1292362Y1130000D02*
X1317362Y1105000D01*
X1292362Y1130000D02*
X1262362Y1130000D01*
X1412362Y817000D02*
X1583249Y817000D01*
X1412362Y817000D02*
X1317362Y912000D01*
X1777362Y1011113D02*
X1777362Y1705000D01*
X1777362Y1011113D02*
X1583249Y817000D01*
X1317362Y912000D02*
X1317362Y1105000D01*
X1502362Y115000D02*
X1587362Y30000D01*
X3136220Y30000D02*
X3196220Y90000D01*
X3196220Y1940000D01*
X2961220Y2175000D01*
X1747362Y2175000D02*
X1652362Y2080000D01*
X1747362Y2175000D02*
X2961220Y2175000D01*
X3136220Y30000D02*
X1587362Y30000D01*
X2352362Y125000D02*
X2636220Y125000D01*
X2352362Y125000D02*
X2052362Y125000D01*
X1972362Y205000D01*
X1692362Y205000D02*
X1602362Y115000D01*
X1692362Y205000D02*
X1972362Y205000D01*
X2087362Y2080000D02*
X2157362Y2150000D01*
X2936220Y2150000D02*
X3151220Y1935000D01*
X3151220Y150000D01*
X2696220Y65000D02*
X2636220Y125000D01*
X2936220Y2150000D02*
X2157362Y2150000D01*
X3151220Y150000D02*
X3066220Y65000D01*
X2696220Y65000D01*
X1832362Y145000D02*
X1802362Y115000D01*
X1832362Y145000D02*
X1927362Y145000D01*
X2836220Y125000D02*
X2911220Y200000D01*
X2986220Y200000D01*
X2836220Y125000D02*
X2736220Y125000D01*
X2906220Y280000D02*
X2986220Y200000D01*
X2906220Y280000D02*
X2906220Y485000D01*
X2866220Y525000D01*
X2636220Y525000D01*
X2486220Y784000D02*
X2574220Y872000D01*
X2486220Y784000D02*
X2370220Y784000D01*
X2368220Y782000D01*
X2574220Y872000D02*
X2574220Y587000D01*
X2636220Y525000D01*
X1730362Y2023000D02*
X1787362Y2080000D01*
X1609362Y2023000D02*
X1552362Y2080000D01*
X1609362Y2023000D02*
X1730362Y2023000D01*
M02*
